# xmcd CD database file
#
# Track frame offsets:
#	150
#	15507
#	31512
#	62295
#	80845
#	102852
#	137677
#	170017
#	200102
#
# Disc length: 3084 seconds
#
# Revision: 0
# Processed by: cddbd v1.5.1PL0 Copyright (c) Steve Scherf et al.
# Submitted via: CDex 1.51
#
DISCID=6d0c0a09
DTITLE=Helloween - Follow The Pumpkin 1
DYEAR=1987
DGENRE=Heavy Metal
TTITLE0=Initiation
TTITLE1=I'm Alive
TTITLE2=Judas
TTITLE3=A Little Time
TTITLE4=Twilight Of The Gods
TTITLE5=Future World
TTITLE6=You Always Walk Alone
TTITLE7=Ride The Sky
TTITLE8=A Tale That Wasn't Right
EXTD=YEAR: 1987
EXTT0=
EXTT1=
EXTT2=
EXTT3=
EXTT4=
EXTT5=
EXTT6=
EXTT7=
EXTT8=
PLAYORDER=
